<?xml version="1.0" encoding="UTF-8" standalone="no"?>
<!-- Created with Inkscape (http://www.inkscape.org/) -->

<svg
   width="199.34369mm"
   height="191.04109mm"
   viewBox="0 0 706.33591 676.91725"
   id="svg4159"
   version="1.1"
   sodipodi:docname="Petal.svg"
   inkscape:version="1.4.4 (dcaf3e7, 2026-05-05)"
   xmlns:inkscape="http://www.inkscape.org/namespaces/inkscape"
   xmlns:sodipodi="http://sodipodi.sourceforge.net/DTD/sodipodi-0.dtd"
   xmlns:xlink="http://www.w3.org/1999/xlink"
   xmlns="http://www.w3.org/2000/svg"
   xmlns:svg="http://www.w3.org/2000/svg"
   xmlns:rdf="http://www.w3.org/1999/02/22-rdf-syntax-ns#"
   xmlns:cc="http://creativecommons.org/ns#"
   xmlns:dc="http://purl.org/dc/elements/1.1/">
  <sodipodi:namedview
     id="namedview1"
     pagecolor="#ffffff"
     bordercolor="#000000"
     borderopacity="0.25"
     inkscape:showpageshadow="2"
     inkscape:pageopacity="0.0"
     inkscape:pagecheckerboard="0"
     inkscape:deskcolor="#d1d1d1"
     inkscape:document-units="mm"
     inkscape:zoom="0.71048196"
     inkscape:cx="377.20873"
     inkscape:cy="361.02254"
     inkscape:window-width="1366"
     inkscape:window-height="715"
     inkscape:window-x="-8"
     inkscape:window-y="-8"
     inkscape:window-maximized="1"
     inkscape:current-layer="Petals" />
  <defs
     id="defs4161">
    <linearGradient
       id="linearGradient5029">
      <stop
         id="stop5031"
         offset="0"
         style="stop-color:#f3609a;stop-opacity:1" />
      <stop
         id="stop5033"
         offset="1"
         style="stop-color:#da1766;stop-opacity:1" />
    </linearGradient>
    <linearGradient
       id="linearGradient5023">
      <stop
         id="stop5025"
         offset="0"
         style="stop-color:#f86da3;stop-opacity:1" />
      <stop
         id="stop5027"
         offset="1"
         style="stop-color:#d91262;stop-opacity:1" />
    </linearGradient>
    <linearGradient
       id="linearGradient5017">
      <stop
         id="stop5019"
         offset="0"
         style="stop-color:#db1866;stop-opacity:1" />
      <stop
         id="stop5021"
         offset="1"
         style="stop-color:#f4619b;stop-opacity:1" />
    </linearGradient>
    <linearGradient
       id="linearGradient5011">
      <stop
         id="stop5013"
         offset="0"
         style="stop-color:#d90f5f;stop-opacity:1" />
      <stop
         id="stop5015"
         offset="1"
         style="stop-color:#f96fa5;stop-opacity:1" />
    </linearGradient>
    <linearGradient
       id="linearGradient4997">
      <stop
         id="stop4999"
         offset="0"
         style="stop-color:#d7095b;stop-opacity:1" />
      <stop
         id="stop5001"
         offset="1"
         style="stop-color:#f970a6;stop-opacity:1" />
    </linearGradient>
    <linearGradient
       id="linearGradient4991">
      <stop
         id="stop4993"
         offset="0"
         style="stop-color:#d80e5f;stop-opacity:1" />
      <stop
         id="stop4995"
         offset="1"
         style="stop-color:#f86da4;stop-opacity:1" />
    </linearGradient>
    <linearGradient
       id="linearGradient4971">
      <stop
         style="stop-color:#d91061;stop-opacity:1"
         offset="0"
         id="stop4973" />
      <stop
         style="stop-color:#f05793;stop-opacity:1"
         offset="1"
         id="stop4975" />
    </linearGradient>
    <linearGradient
       id="linearGradient4947">
      <stop
         style="stop-color:#d40055;stop-opacity:1"
         offset="0"
         id="stop4949" />
      <stop
         style="stop-color:#ff80b2;stop-opacity:1"
         offset="1"
         id="stop4951" />
    </linearGradient>
    <linearGradient
       id="linearGradient4925">
      <stop
         style="stop-color:#ffffff;stop-opacity:1"
         offset="0"
         id="stop4927" />
      <stop
         id="stop5072"
         offset="0.31582245"
         style="stop-color:#ffd0e2;stop-opacity:1;" />
      <stop
         style="stop-color:#ffa7ca;stop-opacity:1"
         offset="1"
         id="stop4929" />
    </linearGradient>
    <linearGradient
       id="linearGradient4917">
      <stop
         style="stop-color:#ffa2c7;stop-opacity:1"
         offset="0"
         id="stop4919" />
      <stop
         id="stop5068"
         offset="0.77114832"
         style="stop-color:#ffcfe1;stop-opacity:1;" />
      <stop
         style="stop-color:#ffffff;stop-opacity:1"
         offset="1"
         id="stop4921" />
    </linearGradient>
    <linearGradient
       id="linearGradient4909">
      <stop
         style="stop-color:#ffa9cb;stop-opacity:1"
         offset="0"
         id="stop4911" />
      <stop
         id="stop5051"
         offset="0.69373578"
         style="stop-color:#ffd2e3;stop-opacity:1;" />
      <stop
         style="stop-color:#ffffff;stop-opacity:1"
         offset="1"
         id="stop4913" />
    </linearGradient>
    <linearGradient
       id="linearGradient4901">
      <stop
         style="stop-color:#ff6600;stop-opacity:1"
         offset="0"
         id="stop4903" />
      <stop
         style="stop-color:#ff9955;stop-opacity:1"
         offset="1"
         id="stop4905" />
    </linearGradient>
    <linearGradient
       id="linearGradient4893">
      <stop
         style="stop-color:#ffaacc;stop-opacity:1"
         offset="0"
         id="stop4895" />
      <stop
         id="stop5070"
         offset="0.54687494"
         style="stop-color:#ffcfe1;stop-opacity:1;" />
      <stop
         style="stop-color:#ffffff;stop-opacity:1"
         offset="1"
         id="stop4897" />
    </linearGradient>
    <linearGradient
       id="linearGradient4885">
      <stop
         style="stop-color:#ffaacc;stop-opacity:1"
         offset="0"
         id="stop4887" />
      <stop
         id="stop4955"
         offset="0.48631296"
         style="stop-color:#ffd1e2;stop-opacity:1;" />
      <stop
         style="stop-color:#ffffff;stop-opacity:1"
         offset="1"
         id="stop4889" />
    </linearGradient>
    <linearGradient
       id="linearGradient4853">
      <stop
         style="stop-color:#ff5599;stop-opacity:1;"
         offset="0"
         id="stop4855" />
      <stop
         style="stop-color:#ff5599;stop-opacity:0;"
         offset="1"
         id="stop4857" />
    </linearGradient>
    <linearGradient
       xlink:href="#linearGradient4853"
       id="linearGradient4859"
       x1="-383.07758"
       y1="900.32001"
       x2="-448.05112"
       y2="903.17712"
       gradientUnits="userSpaceOnUse"
       gradientTransform="matrix(4.0179737,0.9591556,-0.9591556,4.0179737,2250.0025,-4259.6518)" />
    <linearGradient
       xlink:href="#linearGradient4853"
       id="linearGradient4863"
       gradientUnits="userSpaceOnUse"
       gradientTransform="matrix(0.11345496,4.1293125,-4.1293125,0.11345496,3634.8199,457.61844)"
       x1="-383.07758"
       y1="900.32001"
       x2="-448.05112"
       y2="903.17712" />
    <linearGradient
       xlink:href="#linearGradient4853"
       id="linearGradient4867"
       gradientUnits="userSpaceOnUse"
       gradientTransform="matrix(1.9664013,-3.6328169,3.6328169,1.9664013,-2681.6756,-4145.6785)"
       x1="-383.07758"
       y1="900.32001"
       x2="-448.05112"
       y2="903.17712" />
    <linearGradient
       xlink:href="#linearGradient4853"
       id="linearGradient4871"
       gradientUnits="userSpaceOnUse"
       gradientTransform="matrix(-2.162911,-3.5193619,3.5193619,-2.162911,-4146.2182,-375.45866)"
       x1="-383.07758"
       y1="900.32001"
       x2="-448.05112"
       y2="903.17712" />
    <linearGradient
       xlink:href="#linearGradient4853"
       id="linearGradient4875"
       gradientUnits="userSpaceOnUse"
       gradientTransform="matrix(-4.1293125,0.11345496,-0.11345496,-4.1293125,-1618.8317,2763.5516)"
       x1="-383.07758"
       y1="900.32001"
       x2="-448.05112"
       y2="903.17712" />
    <linearGradient
       xlink:href="#linearGradient4885"
       id="linearGradient4891"
       x1="-340.93915"
       y1="888.78412"
       x2="-234.83101"
       y2="872.35547"
       gradientUnits="userSpaceOnUse"
       gradientTransform="matrix(4.0179739,0.95915565,-0.95915565,4.0179739,2247.1325,-4260.337)" />
    <linearGradient
       xlink:href="#linearGradient4893"
       id="linearGradient4899"
       x1="-388.19019"
       y1="874.81006"
       x2="-407.41003"
       y2="767.4765"
       gradientUnits="userSpaceOnUse"
       gradientTransform="matrix(4.0179739,0.95915565,-0.95915565,4.0179739,2247.1325,-4260.337)" />
    <linearGradient
       xlink:href="#linearGradient4901"
       id="linearGradient4907"
       x1="-346.34677"
       y1="861.50061"
       x2="-343.98727"
       y2="852.57202"
       gradientUnits="userSpaceOnUse"
       gradientTransform="matrix(4.1308709,-4.953783e-8,4.953783e-8,4.1308709,1196.5016,-4665.6681)" />
    <linearGradient
       xlink:href="#linearGradient4909"
       id="linearGradient4915"
       x1="-359.15939"
       y1="910.90503"
       x2="-293.93741"
       y2="1002.8028"
       gradientUnits="userSpaceOnUse"
       gradientTransform="matrix(4.0179739,0.95915565,-0.95915565,4.0179739,2247.1325,-4260.337)" />
    <linearGradient
       xlink:href="#linearGradient4917"
       id="linearGradient4923"
       x1="-383.12738"
       y1="926.09711"
       x2="-415.65674"
       y2="1041.1268"
       gradientUnits="userSpaceOnUse"
       gradientTransform="matrix(4.0179739,0.95915565,-0.95915565,4.0179739,2247.1325,-4260.337)" />
    <linearGradient
       xlink:href="#linearGradient4925"
       id="linearGradient4931"
       x1="-514.16766"
       y1="901.84949"
       x2="-387.89859"
       y2="902.85962"
       gradientUnits="userSpaceOnUse"
       gradientTransform="matrix(4.0179739,0.95915565,-0.95915565,4.0179739,2247.1325,-4260.337)" />
    <linearGradient
       xlink:href="#linearGradient4901"
       id="linearGradient4943"
       gradientUnits="userSpaceOnUse"
       x1="-346.34677"
       y1="861.50061"
       x2="-343.98727"
       y2="852.57202"
       gradientTransform="matrix(4.1308709,-4.953783e-8,4.953783e-8,4.1308709,1014.8128,-4712.8458)" />
    <linearGradient
       xlink:href="#linearGradient4947"
       id="linearGradient4953"
       x1="-379.89676"
       y1="902.79431"
       x2="-343.9642"
       y2="857.08496"
       gradientUnits="userSpaceOnUse"
       gradientTransform="matrix(4.0179737,0.9591556,-0.9591556,4.0179737,2247.1325,-4260.337)" />
    <linearGradient
       xlink:href="#linearGradient4991"
       id="linearGradient4977"
       x1="-383.89142"
       y1="896.67767"
       x2="-386.65814"
       y2="845.66498"
       gradientUnits="userSpaceOnUse"
       gradientTransform="matrix(4.0179737,0.9591556,-0.9591556,4.0179737,2258.5611,-4246.0513)" />
    <linearGradient
       xlink:href="#linearGradient4997"
       id="linearGradient4979"
       x1="-386.15259"
       y1="901.37976"
       x2="-408.44186"
       y2="863.24652"
       gradientUnits="userSpaceOnUse"
       gradientTransform="matrix(4.0179737,0.9591556,-0.9591556,4.0179737,2247.1325,-4260.337)" />
    <linearGradient
       xlink:href="#linearGradient5023"
       id="linearGradient4981"
       x1="-423.95459"
       y1="899.29333"
       x2="-382.66135"
       y2="904.84918"
       gradientUnits="userSpaceOnUse"
       gradientTransform="matrix(4.0179737,0.9591556,-0.9591556,4.0179737,2247.1325,-4260.337)" />
    <linearGradient
       xlink:href="#linearGradient5029"
       id="linearGradient4983"
       x1="-424.99991"
       y1="915.93457"
       x2="-378.20706"
       y2="915.93457"
       gradientUnits="userSpaceOnUse"
       gradientTransform="matrix(4.0179737,0.9591556,-0.9591556,4.0179737,2247.1325,-4260.337)" />
    <linearGradient
       xlink:href="#linearGradient5017"
       id="linearGradient4985"
       x1="-382.88229"
       y1="911.18164"
       x2="-333.86789"
       y2="911.18164"
       gradientUnits="userSpaceOnUse"
       gradientTransform="matrix(4.0179737,0.9591556,-0.9591556,4.0179737,2247.1325,-4260.337)" />
    <linearGradient
       xlink:href="#linearGradient5011"
       id="linearGradient4987"
       x1="-381.32297"
       y1="904.9115"
       x2="-336.24582"
       y2="904.9115"
       gradientUnits="userSpaceOnUse"
       gradientTransform="matrix(4.0179737,0.9591556,-0.9591556,4.0179737,2247.1325,-4260.337)" />
    <linearGradient
       xlink:href="#linearGradient4971"
       id="linearGradient4989"
       x1="-380.1622"
       y1="906.9173"
       x2="-375.65286"
       y2="942.27264"
       gradientUnits="userSpaceOnUse"
       gradientTransform="matrix(4.0179737,0.9591556,-0.9591556,4.0179737,2247.1325,-4260.337)" />
    <linearGradient
       xlink:href="#linearGradient4901"
       id="linearGradient5005"
       gradientUnits="userSpaceOnUse"
       gradientTransform="matrix(4.1308709,-4.953783e-8,4.953783e-8,4.1308709,920.05301,-4664.6249)"
       x1="-346.34677"
       y1="861.50061"
       x2="-343.98727"
       y2="852.57202" />
    <linearGradient
       xlink:href="#linearGradient4901"
       id="linearGradient5009"
       gradientUnits="userSpaceOnUse"
       x1="-346.34677"
       y1="861.50061"
       x2="-343.98727"
       y2="852.57202"
       gradientTransform="matrix(4.1308709,-4.953783e-8,4.953783e-8,4.1308709,1243.4457,-4487.2806)" />
    <linearGradient
       xlink:href="#linearGradient4901"
       id="linearGradient5037"
       gradientUnits="userSpaceOnUse"
       x1="-346.34677"
       y1="861.50061"
       x2="-343.98727"
       y2="852.57202"
       gradientTransform="matrix(4.1308709,-4.953783e-8,4.953783e-8,4.1308709,1246.5754,-4418.4292)" />
    <linearGradient
       xlink:href="#linearGradient4901"
       id="linearGradient5041"
       gradientUnits="userSpaceOnUse"
       gradientTransform="matrix(4.1308709,-4.953783e-8,4.953783e-8,4.1308709,874.15221,-4387.1331)"
       x1="-346.34677"
       y1="861.50061"
       x2="-343.98727"
       y2="852.57202" />
    <linearGradient
       xlink:href="#linearGradient4901"
       id="linearGradient5045"
       gradientUnits="userSpaceOnUse"
       gradientTransform="matrix(4.1308709,-4.953783e-8,4.953783e-8,4.1308709,878.32481,-4525.8792)"
       x1="-346.34677"
       y1="861.50061"
       x2="-343.98727"
       y2="852.57202" />
    <linearGradient
       xlink:href="#linearGradient4901"
       id="linearGradient5049"
       gradientUnits="userSpaceOnUse"
       x1="-346.34677"
       y1="861.50061"
       x2="-343.98727"
       y2="852.57202"
       gradientTransform="matrix(4.1308709,-4.953783e-8,4.953783e-8,4.1308709,1048.3669,-4292.2018)" />
  </defs>
  <metadata
     id="metadata4164">
    <rdf:RDF>
      <cc:Work
         rdf:about="">
        <dc:format>image/svg+xml</dc:format>
        <dc:type
           rdf:resource="http://purl.org/dc/dcmitype/StillImage" />
      </cc:Work>
    </rdf:RDF>
  </metadata>
  <g
     id="Petals"
     transform="translate(-32.7458,-151.34338)">
    <g
       id="g3"
       inkscape:label="Petal5">
      <path
         style="fill:url(#linearGradient4899);fill-opacity:1;fill-rule:evenodd;stroke:#ff80b2;stroke-width:20.6543541;stroke-linecap:butt;stroke-linejoin:miter;stroke-miterlimit:4;stroke-dasharray:none;stroke-opacity:1"
         d="m -137.80999,-979.57209 c 0,0 112.706759,-99.81941 145.318759,-165.62971 44.1566,-89.1071 86.4839,-196.7464 59.26732,-292.3972 -15.11827,-53.1324 -60.87262,-103.9609 -113.4981,-120.7591 -30.74603,-9.8143 -62.655429,19.7281 -94.923479,19.0861 -35.79697,-0.7121 -69.97438,-35.2567 -104.37917,-25.3449 -51.75622,14.9106 -95.30592,64.8373 -112.669,115.8232 -34.32534,100.7948 -14.17818,223.7842 36.69801,317.3227 38.02402,69.9088 184.18566,151.89891 184.18566,151.89891 z"
         id="path4721"
         transform="matrix(0.4418682,0,0,0.4418682,455.26208,932.91684)"
         inkscape:label="Petal5" />
      <path
         id="path5084"
         d="m 38.325139,-1475.5089 13.77298,24.6763 2.08638,56.3307 -16.68723,82.414 -34.42498,85.5381 -54.24668,125.1832 28.7386,-9.2944 c 7.81907,-10.9203 14.62955,-21.5632 19.50869,-31.4092 44.15662,-89.1072 86.48491,-196.7454 59.26834,-292.3963 -3.99567,-14.0424 -10.1793,-27.9075 -18.0161,-41.0424 z"
         style="opacity:0.07300002;fill:#666666;fill-rule:evenodd;stroke:none;stroke-width:1px;stroke-linecap:butt;stroke-linejoin:miter;stroke-opacity:1"
         transform="matrix(0.4418682,0,0,0.4418682,455.26208,932.91684)"
         inkscape:label="Petal5_shadow2" />
      <path
         id="path5078"
         d="m -218.52153,-1547.6257 c -4.29709,0 -8.6003,0.5441 -12.90093,1.783 -51.75619,14.9107 -95.29995,64.8398 -112.66305,115.8258 -34.32534,100.7948 -14.18247,223.7883 36.69375,317.3267 6.65419,12.234 16.67061,24.829 28.58533,37.2989 l -19.61184,-148.0247 c 0,0 -31.52787,-66.0868 -33.57431,-110.4026 -1.47888,-32.0253 3.9568,-81.6439 22.48927,-116.6326 13.811,-26.0745 35.52009,-49.7527 62.48748,-62.6972 45.21214,-21.702 163.497919,21.6283 163.497919,21.6283 49.00386,-31.1082 77.88513,6.2762 116.84074,10.4288 l 0.17761,-2.3446 c -19.72776,-20.9413 -39.7419,-47.8867 -65.61631,-56.1459 -30.74604,-9.8143 -62.65325,19.7311 -94.921289,19.0891 -31.32235,-0.6231 -61.40457,-27.1514 -91.48427,-27.133 z"
         style="opacity:0.35899999;fill:#ffffff;fill-rule:evenodd;stroke:none;stroke-width:1px;stroke-linecap:butt;stroke-linejoin:miter;stroke-opacity:1"
         transform="matrix(0.4418682,0,0,0.4418682,455.26208,932.91684)"
         inkscape:label="Petal5_shadow1" />
    </g>
    <g
       id="g5"
       transform="translate(1.6945341e-7)"
       inkscape:label="Petal4">
      <path
         id="path4734"
         d="m -155.24947,-998.59141 c 0,0 99.819669,112.70687 165.629969,145.31882 89.10694,44.15676 196.746101,86.48383 292.397001,59.26749 53.13253,-15.11853 103.96096,-60.87289 120.75917,-113.49837 9.81424,-30.74594 -19.72813,-62.6551 -19.08611,-94.92343 0.71212,-35.7969 35.25674,-69.9745 25.34488,-104.3791 -14.91063,-51.7562 -64.83731,-95.3058 -115.82317,-112.6688 -100.79477,-34.3254 -223.784211,-14.1783 -317.322571,36.6979 -69.90888,38.0241 -151.899169,184.18549 -151.899169,184.18549 z"
         style="display:inline;fill:url(#linearGradient4891);fill-opacity:1;fill-rule:evenodd;stroke:#ff80b2;stroke-width:20.6544;stroke-linecap:butt;stroke-linejoin:miter;stroke-miterlimit:4;stroke-dasharray:none;stroke-opacity:0.996078"
         transform="matrix(0.4418682,0,0,0.4418682,455.26208,932.91684)"
         inkscape:label="Petal4" />
      <path
         id="path5098"
         d="m 193.82177,-1219.8395 c -33.19456,0.096 -115.355221,20.1574 -147.938241,28.0423 0,0 31.9891,-4.7201 48.05661,-6.4837 40.935621,-4.4932 82.140581,-14.6722 123.103171,-10.432 33.08655,3.4249 95.59938,28.6148 95.59938,28.6148 l 44.07414,39.0921 c 0,0 25.64348,25.8211 31.46391,42.4425 5.90158,16.8532 1.91386,53.5357 1.91386,53.5357 l 1.58575,31.0836 c 9.7757,-24.5112 33.19972,-62.7831 26.25678,-86.8825 -14.91063,-51.7563 -59.12565,-91.0224 -110.11149,-108.3854 -34.64819,-11.7993 -76.20826,-10.737 -114.00387,-10.6274 z"
         style="opacity:0.294;fill:#ffffff;fill-rule:evenodd;stroke:none;stroke-width:1px;stroke-linecap:butt;stroke-linejoin:miter;stroke-opacity:1"
         transform="matrix(0.4418682,0,0,0.4418682,455.26208,932.91684)"
         inkscape:label="Petal4_shadow" />
    </g>
    <g
       id="g2"
       inkscape:label="Petal3">
      <path
         style="fill:url(#linearGradient4915);fill-opacity:1;fill-rule:evenodd;stroke:#ff80b2;stroke-width:20.6543541;stroke-linecap:butt;stroke-linejoin:miter;stroke-miterlimit:4;stroke-dasharray:none;stroke-opacity:1"
         d="m -152.63442,-992.88525 c 0,0 -47.69699,142.79953 -43.03476,216.09902 6.31279,99.24715 23.47591,213.62918 94.87154,282.85727 39.658979,38.4551 104.697589,59.5966 158.671799,47.8315 31.53395,-6.8739 44.397151,-48.4131 72.663011,-63.99106 31.35723,-17.28207 78.22801,-4.45439 103.06757,-30.24063 37.36685,-38.79083 50.11868,-103.80359 39.6626,-156.63991 -20.67072,-104.45382 -99.61339,-200.89199 -190.442721,-256.46037 -67.88413,-41.53121 -235.459039,-39.45582 -235.459039,-39.45582 z"
         id="path4736"
         transform="matrix(0.4418682,0,0,0.4418682,455.26208,932.91684)"
         inkscape:label="Petal3" />
      <path
         id="path5096"
         d="m -131.50214,-611.05737 -21.99365,8.60108 c 13.74876,34.7244 32.66497,66.34813 58.953659,91.83897 39.65897,38.45516 104.70126,59.59286 158.67547,47.82756 31.53394,-6.8738 44.395491,-48.41039 72.661341,-63.98782 16.29414,-8.98054 36.76613,-9.84456 56.17019,-12.20707 l -76.18715,0.95199 -41.728231,35.46728 -54.24189,2.08991 -81.37493,-29.21476 -79.277219,-75.10624 8.34241,-6.2609 z"
         style="opacity:0.55;fill:#ffffff;fill-rule:evenodd;stroke:none;stroke-width:1px;stroke-linecap:butt;stroke-linejoin:miter;stroke-opacity:1"
         transform="matrix(0.4418682,0,0,0.4418682,455.26208,932.91684)"
         inkscape:label="Petal3_shadow" />
    </g>
    <g
       id="g1"
       inkscape:label="Petal2">
      <path
         id="path4738"
         d="m -156.62849,-1003.8827 c 0,0 -147.51677,30.09308 -208.66476,70.78019 -82.79424,55.09095 -173.27025,127.14551 -197.52553,223.58966 -13.47334,53.57325 0.73677,120.46936 37.91263,161.33007 21.71976,23.87213 64.12524,14.2423 91.74926,30.93259 30.645,18.51492 42.97121,65.52013 77.72258,74.13883 52.27739,12.9651 114.95592,-8.498 155.48566,-43.971 80.12413,-70.12871 124.170929,-186.71458 126.879979,-293.15898 2.02471,-79.5549 -83.559819,-223.64136 -83.559819,-223.64136 z"
         style="fill:url(#linearGradient4923);fill-opacity:1;fill-rule:evenodd;stroke:#ff80b2;stroke-width:20.6543541;stroke-linecap:butt;stroke-linejoin:miter;stroke-miterlimit:4;stroke-dasharray:none;stroke-opacity:1"
         transform="matrix(0.4418682,0,0,0.4418682,455.26208,932.91684)"
         inkscape:label="Petal2" />
      <path
         id="path5109"
         d="m -137.6507,-959.73478 -23.16353,1.9283 c 0,0 29.8938,64.3836 36.88278,98.85161 9.09647,44.86165 5.9024,137.197 5.9024,137.197 l -25.08372,116.552 -40.2841,90.20933 c 64.93489,-70.941 100.523329,-174.35684 102.949069,-269.6684 1.2764,-50.153 -32.235569,-125.89206 -57.202899,-175.06984 z"
         style="opacity:0.23299997;fill:#b3b3b3;fill-opacity:1;fill-rule:evenodd;stroke:none;stroke-width:1px;stroke-linecap:butt;stroke-linejoin:miter;stroke-opacity:1"
         transform="matrix(0.4418682,0,0,0.4418682,455.26208,932.91684)"
         inkscape:label="Petal2_shadow2" />
      <path
         id="path5094"
         d="m -419.42389,-880.20763 -16.93493,11.21466 c -45.36192,41.50417 -82.9127,89.94044 -97.25296,146.96061 -13.47333,53.57292 0.73614,120.46945 37.91202,161.32984 21.71972,23.87194 64.1265,14.24291 91.7505,30.93285 30.64504,18.5155 42.97675,65.51941 77.72812,74.13801 19.53323,4.8442 40.5136,4.8738 61.25308,1.17 l -62.65692,-18.8955 -22.95376,-35.46719 -18.77445,-33.38603 -37.55708,-20.8644 -35.46739,-16.68447 -43.80978,-25.0434 -14.61135,-64.67422 8.35048,-79.28517 z"
         style="display:inline;opacity:0.397;fill:#ffffff;fill-rule:evenodd;stroke:none;stroke-width:1px;stroke-linecap:butt;stroke-linejoin:miter;stroke-opacity:1"
         transform="matrix(0.4418682,0,0,0.4418682,455.26208,932.91684)"
         inkscape:label="Petal2_shadow1" />
    </g>
    <g
       id="g4"
       inkscape:label="Petal1">
      <path
         style="fill:url(#linearGradient4931);fill-opacity:1;fill-rule:evenodd;stroke:#ff80b2;stroke-width:20.6543541;stroke-linecap:butt;stroke-linejoin:miter;stroke-miterlimit:4;stroke-dasharray:none;stroke-opacity:1"
         d="m -152.37225,-1002.5044 c 0,0 -67.24776,-134.7016 -122.37496,-183.2354 -74.64227,-65.7145 -167.6586,-134.4582 -267.09449,-132.9254 -55.23485,0.8515 -116.1734,31.8911 -146.0199,78.3758 -17.43739,27.1582 2.83947,65.6268 -6.13207,96.6291 -9.95279,34.3928 -52.16603,58.465 -51.49665,94.2626 1.00703,53.85161 37.96112,108.83949 82.71566,138.80725 88.47612,59.24331 212.48934,71.6145 316.00819,46.68152 77.36819,-18.63479 194.39422,-138.59547 194.39422,-138.59547 z"
         id="path4740"
         transform="matrix(0.4418682,0,0,0.4418682,455.26208,932.91684)"
         inkscape:label="Petal1" />
      <path
         id="path5089"
         d="m -531.41239,-1312.4048 c -55.23487,0.8515 -116.17006,31.8888 -146.01656,78.3735 -17.43747,27.1582 2.83976,65.6294 -6.1318,96.6317 -9.95279,34.3929 -52.16812,58.4621 -51.49873,94.2597 1.00703,53.85168 37.95967,108.84406 82.71426,138.8118 24.42638,16.3559 51.57267,29.12128 80.23733,38.53329 l -55.96043,-49.87706 -18.77446,-39.64665 -10.43208,-27.11692 -16.69286,-45.90746 10.43204,-50.0707 22.95376,-56.3315 -6.26086,-52.1603 31.29615,-45.8995 79.28532,-45.8995 110.5734,-2.0896 -14.66783,-14.6678 c -29.48026,-11.0284 -59.95438,-17.4225 -91.05665,-16.943 z"
         style="opacity:0.33200001;fill:#ffffff;fill-rule:evenodd;stroke:none;stroke-width:1px;stroke-linecap:butt;stroke-linejoin:miter;stroke-opacity:1"
         transform="matrix(0.4418682,0,0,0.4418682,455.26208,932.91684)"
         inkscape:label="Petal1_shadow" />
    </g>
  </g>
</svg>
